<svg width="186" height="114" viewBox="0 0 186 114" fill="none" xmlns="http://www.w3.org/2000/svg">
<path d="M38.518 22.6033C68.665 -6.91967 117.532 -6.91967 147.718 22.6033L151.345 26.1523C152.866 27.6343 152.866 30.0133 151.345 31.4953L138.943 43.6633C138.202 44.4043 136.954 44.4043 136.213 43.6633L131.221 38.7883C110.2 18.1963 76.075 18.1963 55.054 38.7883L49.711 44.0143C48.97 44.7553 47.722 44.7553 46.981 44.0143L34.54 31.8463C33.019 30.3643 33.019 27.9853 34.54 26.5033L38.518 22.6033ZM173.38 47.7193L184.417 58.5223C185.938 60.0043 185.938 62.3833 184.417 63.8653L134.614 112.654C133.093 114.136 130.675 114.136 129.154 112.654L93.781 78.0223C93.391 77.6713 92.806 77.6713 92.416 78.0223L57.082 112.654C55.561 114.136 53.143 114.136 51.622 112.654L1.78003 63.9043C0.259032 62.4223 0.259032 60.0433 1.78003 58.5613L12.817 47.7583C14.338 46.2763 16.756 46.2763 18.277 47.7583L53.65 82.3903C54.04 82.7413 54.625 82.7413 55.015 82.3903L90.349 47.7583C91.87 46.2763 94.288 46.2763 95.809 47.7583L131.182 82.3903C131.572 82.7413 132.157 82.7413 132.547 82.3903L167.92 47.7583C169.402 46.2373 171.859 46.2373 173.38 47.7193Z" fill="#3A99FB"/>
</svg>
